<?xml version="1.0" standalone="no"?>
<!DOCTYPE svg PUBLIC "-//W3C//DTD SVG 20010904//EN"
 "http://www.w3.org/TR/2001/REC-SVG-20010904/DTD/svg10.dtd">
<svg version="1.0" xmlns="http://www.w3.org/2000/svg"
 width="185.000000pt" height="185.000000pt" viewBox="0 0 185.000000 185.000000"
 preserveAspectRatio="xMidYMid meet">
<metadata>
Created by potrace 1.11, written by Peter Selinger 2001-2013
</metadata>
<g transform="translate(0.000000,185.000000) scale(0.100000,-0.100000)"
fill="#000000" stroke="none">
<path d="M1585 1741 c-174 -46 -435 -160 -578 -254 -98 -64 -245 -185 -307
-253 -25 -28 -61 -68 -81 -89 -34 -38 -40 -41 -156 -64 l-121 -24 -143 -143
c-131 -131 -140 -143 -118 -149 28 -6 320 -65 326 -65 1 0 3 -21 3 -48 0 -72
16 -112 62 -160 56 -57 82 -70 160 -78 l65 -6 33 -175 33 -175 144 144 145
145 26 124 27 125 85 75 c223 197 389 458 506 793 29 85 64 237 64 282 0 20
-89 17 -175 -5z m-429 -536 c45 -29 66 -74 61 -133 -7 -104 -108 -161 -204
-115 -49 23 -73 66 -73 130 0 41 5 58 27 84 50 59 129 73 189 34z"/>
<path d="M132 567 l-62 -63 0 -61 c0 -34 4 -64 8 -67 9 -5 249 231 242 237 -3
2 -32 7 -66 10 l-60 6 -62 -62z"/>
<path d="M202 357 l-133 -133 3 -75 3 -74 69 -3 70 -3 133 133 c73 73 133 137
133 143 0 10 -131 145 -140 145 -3 0 -65 -60 -138 -133z"/>
<path d="M480 205 l-125 -125 75 0 74 0 58 57 c54 54 58 60 57 103 -2 103 -2
103 -139 -35z"/>
</g>
</svg>
